<mxfile host="app.diagrams.net" modified="2024-04-13T20:03:46.781Z" agent="Mozilla/5.0 (Windows NT 10.0; Win64; x64) AppleWebKit/537.36 (KHTML, like Gecko) Chrome/121.0.0.0 Safari/537.36 OPR/107.0.0.0" etag="BQHYTlFLpCctgIsG3l8y" version="24.2.5" type="github">
  <diagram name="Страница — 1" id="0PVnzQx3ky1tQaYyZT1H">
    <mxGraphModel dx="1393" dy="766" grid="1" gridSize="10" guides="1" tooltips="1" connect="1" arrows="1" fold="1" page="1" pageScale="1" pageWidth="827" pageHeight="1169" math="0" shadow="0">
      <root>
        <mxCell id="0" />
        <mxCell id="1" parent="0" />
        <mxCell id="_8XfiZlyQRfRLCPI8ml1-1" value="Клиент" style="shape=umlActor;verticalLabelPosition=bottom;verticalAlign=top;html=1;outlineConnect=0;" parent="1" vertex="1">
          <mxGeometry x="50" y="50" width="30" height="60" as="geometry" />
        </mxCell>
        <mxCell id="_8XfiZlyQRfRLCPI8ml1-4" value="Курьер" style="shape=umlActor;verticalLabelPosition=bottom;verticalAlign=top;html=1;outlineConnect=0;" parent="1" vertex="1">
          <mxGeometry x="40" y="740" width="30" height="60" as="geometry" />
        </mxCell>
        <mxCell id="_8XfiZlyQRfRLCPI8ml1-5" value="Администратор" style="shape=umlActor;verticalLabelPosition=bottom;verticalAlign=top;html=1;outlineConnect=0;" parent="1" vertex="1">
          <mxGeometry x="50" y="350" width="30" height="60" as="geometry" />
        </mxCell>
        <mxCell id="_8XfiZlyQRfRLCPI8ml1-6" value="Оператор колл-центра" style="shape=umlActor;verticalLabelPosition=bottom;verticalAlign=top;html=1;outlineConnect=0;" parent="1" vertex="1">
          <mxGeometry x="730" y="60" width="30" height="60" as="geometry" />
        </mxCell>
        <mxCell id="_8XfiZlyQRfRLCPI8ml1-7" value="Менеджер" style="shape=umlActor;verticalLabelPosition=bottom;verticalAlign=top;html=1;outlineConnect=0;" parent="1" vertex="1">
          <mxGeometry x="740" y="330" width="30" height="60" as="geometry" />
        </mxCell>
        <mxCell id="_8XfiZlyQRfRLCPI8ml1-8" value="Маркетолог" style="shape=umlActor;verticalLabelPosition=bottom;verticalAlign=top;html=1;outlineConnect=0;" parent="1" vertex="1">
          <mxGeometry x="740" y="625" width="30" height="60" as="geometry" />
        </mxCell>
        <mxCell id="_8XfiZlyQRfRLCPI8ml1-9" value="Бухгалтер" style="shape=umlActor;verticalLabelPosition=bottom;verticalAlign=top;html=1;outlineConnect=0;" parent="1" vertex="1">
          <mxGeometry x="717.5" y="797.5" width="30" height="60" as="geometry" />
        </mxCell>
        <mxCell id="_8XfiZlyQRfRLCPI8ml1-10" value="" style="rounded=1;whiteSpace=wrap;html=1;" parent="1" vertex="1">
          <mxGeometry x="160" y="10" width="90" height="40" as="geometry" />
        </mxCell>
        <mxCell id="_8XfiZlyQRfRLCPI8ml1-11" value="Оформление заказа" style="text;html=1;align=center;verticalAlign=middle;whiteSpace=wrap;rounded=0;" parent="1" vertex="1">
          <mxGeometry x="175" y="15" width="60" height="30" as="geometry" />
        </mxCell>
        <mxCell id="_8XfiZlyQRfRLCPI8ml1-12" value="" style="rounded=1;whiteSpace=wrap;html=1;" parent="1" vertex="1">
          <mxGeometry x="290" y="45" width="90" height="40" as="geometry" />
        </mxCell>
        <mxCell id="_8XfiZlyQRfRLCPI8ml1-13" value="Просматривать товары" style="text;html=1;align=center;verticalAlign=middle;whiteSpace=wrap;rounded=0;" parent="1" vertex="1">
          <mxGeometry x="305" y="50" width="60" height="30" as="geometry" />
        </mxCell>
        <mxCell id="_8XfiZlyQRfRLCPI8ml1-14" value="" style="rounded=1;whiteSpace=wrap;html=1;" parent="1" vertex="1">
          <mxGeometry x="225" y="240" width="90" height="40" as="geometry" />
        </mxCell>
        <mxCell id="_8XfiZlyQRfRLCPI8ml1-15" value="Добавить комментарий" style="text;html=1;align=center;verticalAlign=middle;whiteSpace=wrap;rounded=0;" parent="1" vertex="1">
          <mxGeometry x="240" y="245" width="60" height="30" as="geometry" />
        </mxCell>
        <mxCell id="_8XfiZlyQRfRLCPI8ml1-16" value="" style="rounded=1;whiteSpace=wrap;html=1;" parent="1" vertex="1">
          <mxGeometry x="120" y="240" width="90" height="40" as="geometry" />
        </mxCell>
        <mxCell id="_8XfiZlyQRfRLCPI8ml1-17" value="Оплатить заказ" style="text;html=1;align=center;verticalAlign=middle;whiteSpace=wrap;rounded=0;" parent="1" vertex="1">
          <mxGeometry x="135" y="245" width="60" height="30" as="geometry" />
        </mxCell>
        <mxCell id="_8XfiZlyQRfRLCPI8ml1-18" value="Просматривать историю заказов" style="rounded=1;whiteSpace=wrap;html=1;" parent="1" vertex="1">
          <mxGeometry x="290" y="180" width="120" height="40" as="geometry" />
        </mxCell>
        <mxCell id="_8XfiZlyQRfRLCPI8ml1-20" value="" style="rounded=1;whiteSpace=wrap;html=1;" parent="1" vertex="1">
          <mxGeometry x="300" y="110" width="110" height="40" as="geometry" />
        </mxCell>
        <mxCell id="_8XfiZlyQRfRLCPI8ml1-21" value="Добавить товар в корзину" style="text;html=1;align=center;verticalAlign=middle;whiteSpace=wrap;rounded=0;" parent="1" vertex="1">
          <mxGeometry x="305" y="115" width="100" height="30" as="geometry" />
        </mxCell>
        <mxCell id="_8XfiZlyQRfRLCPI8ml1-22" value="" style="endArrow=classic;html=1;rounded=0;entryX=0;entryY=0.75;entryDx=0;entryDy=0;" parent="1" source="_8XfiZlyQRfRLCPI8ml1-1" target="_8XfiZlyQRfRLCPI8ml1-10" edge="1">
          <mxGeometry width="50" height="50" relative="1" as="geometry">
            <mxPoint x="190" y="210" as="sourcePoint" />
            <mxPoint x="240" y="160" as="targetPoint" />
          </mxGeometry>
        </mxCell>
        <mxCell id="_8XfiZlyQRfRLCPI8ml1-23" value="" style="endArrow=classic;html=1;rounded=0;entryX=-0.021;entryY=0.622;entryDx=0;entryDy=0;entryPerimeter=0;" parent="1" source="_8XfiZlyQRfRLCPI8ml1-1" target="_8XfiZlyQRfRLCPI8ml1-12" edge="1">
          <mxGeometry width="50" height="50" relative="1" as="geometry">
            <mxPoint x="90" y="84" as="sourcePoint" />
            <mxPoint x="170" y="50" as="targetPoint" />
          </mxGeometry>
        </mxCell>
        <mxCell id="_8XfiZlyQRfRLCPI8ml1-24" value="" style="endArrow=classic;html=1;rounded=0;entryX=0;entryY=0.5;entryDx=0;entryDy=0;" parent="1" target="_8XfiZlyQRfRLCPI8ml1-20" edge="1">
          <mxGeometry width="50" height="50" relative="1" as="geometry">
            <mxPoint x="80" y="90" as="sourcePoint" />
            <mxPoint x="180" y="60" as="targetPoint" />
          </mxGeometry>
        </mxCell>
        <mxCell id="_8XfiZlyQRfRLCPI8ml1-25" value="" style="endArrow=classic;html=1;rounded=0;entryX=0;entryY=0.5;entryDx=0;entryDy=0;" parent="1" source="_8XfiZlyQRfRLCPI8ml1-1" target="_8XfiZlyQRfRLCPI8ml1-18" edge="1">
          <mxGeometry width="50" height="50" relative="1" as="geometry">
            <mxPoint x="110" y="104" as="sourcePoint" />
            <mxPoint x="190" y="70" as="targetPoint" />
          </mxGeometry>
        </mxCell>
        <mxCell id="_8XfiZlyQRfRLCPI8ml1-26" value="" style="endArrow=classic;html=1;rounded=0;entryX=0.158;entryY=-0.044;entryDx=0;entryDy=0;entryPerimeter=0;" parent="1" source="_8XfiZlyQRfRLCPI8ml1-1" target="_8XfiZlyQRfRLCPI8ml1-14" edge="1">
          <mxGeometry width="50" height="50" relative="1" as="geometry">
            <mxPoint x="120" y="114" as="sourcePoint" />
            <mxPoint x="200" y="80" as="targetPoint" />
          </mxGeometry>
        </mxCell>
        <mxCell id="_8XfiZlyQRfRLCPI8ml1-27" value="" style="endArrow=classic;html=1;rounded=0;" parent="1" source="_8XfiZlyQRfRLCPI8ml1-1" target="_8XfiZlyQRfRLCPI8ml1-17" edge="1">
          <mxGeometry width="50" height="50" relative="1" as="geometry">
            <mxPoint x="130" y="124" as="sourcePoint" />
            <mxPoint x="210" y="90" as="targetPoint" />
          </mxGeometry>
        </mxCell>
        <mxCell id="_8XfiZlyQRfRLCPI8ml1-28" value="" style="rounded=1;whiteSpace=wrap;html=1;" parent="1" vertex="1">
          <mxGeometry x="135" y="320" width="90" height="40" as="geometry" />
        </mxCell>
        <mxCell id="_8XfiZlyQRfRLCPI8ml1-29" value="Добавлять товары в бд" style="text;html=1;align=center;verticalAlign=middle;whiteSpace=wrap;rounded=0;" parent="1" vertex="1">
          <mxGeometry x="140" y="325" width="80" height="30" as="geometry" />
        </mxCell>
        <mxCell id="_8XfiZlyQRfRLCPI8ml1-30" value="" style="rounded=1;whiteSpace=wrap;html=1;" parent="1" vertex="1">
          <mxGeometry x="215" y="370" width="90" height="40" as="geometry" />
        </mxCell>
        <mxCell id="_8XfiZlyQRfRLCPI8ml1-31" value="Редактировать товары в бд" style="text;html=1;align=center;verticalAlign=middle;whiteSpace=wrap;rounded=0;" parent="1" vertex="1">
          <mxGeometry x="225" y="375" width="70" height="30" as="geometry" />
        </mxCell>
        <mxCell id="_8XfiZlyQRfRLCPI8ml1-32" value="" style="rounded=1;whiteSpace=wrap;html=1;" parent="1" vertex="1">
          <mxGeometry x="215" y="430" width="90" height="40" as="geometry" />
        </mxCell>
        <mxCell id="_8XfiZlyQRfRLCPI8ml1-33" value="Удалять товары в бд" style="text;html=1;align=center;verticalAlign=middle;whiteSpace=wrap;rounded=0;" parent="1" vertex="1">
          <mxGeometry x="220" y="435" width="80" height="30" as="geometry" />
        </mxCell>
        <mxCell id="_8XfiZlyQRfRLCPI8ml1-34" value="" style="rounded=1;whiteSpace=wrap;html=1;" parent="1" vertex="1">
          <mxGeometry x="215" y="500" width="90" height="40" as="geometry" />
        </mxCell>
        <mxCell id="_8XfiZlyQRfRLCPI8ml1-35" value="Просматривать заказы" style="text;html=1;align=center;verticalAlign=middle;whiteSpace=wrap;rounded=0;" parent="1" vertex="1">
          <mxGeometry x="230" y="505" width="60" height="30" as="geometry" />
        </mxCell>
        <mxCell id="_8XfiZlyQRfRLCPI8ml1-36" value="" style="rounded=1;whiteSpace=wrap;html=1;" parent="1" vertex="1">
          <mxGeometry x="110" y="550" width="90" height="40" as="geometry" />
        </mxCell>
        <mxCell id="_8XfiZlyQRfRLCPI8ml1-38" value="Редактировать заказы" style="text;html=1;align=center;verticalAlign=middle;whiteSpace=wrap;rounded=0;" parent="1" vertex="1">
          <mxGeometry x="125" y="555" width="60" height="30" as="geometry" />
        </mxCell>
        <mxCell id="_8XfiZlyQRfRLCPI8ml1-39" value="" style="rounded=1;whiteSpace=wrap;html=1;" parent="1" vertex="1">
          <mxGeometry x="112.5" y="690" width="95" height="50" as="geometry" />
        </mxCell>
        <mxCell id="_8XfiZlyQRfRLCPI8ml1-40" value="Просматривать расписание заказов" style="text;html=1;align=center;verticalAlign=middle;whiteSpace=wrap;rounded=0;" parent="1" vertex="1">
          <mxGeometry x="130" y="700" width="60" height="30" as="geometry" />
        </mxCell>
        <mxCell id="_8XfiZlyQRfRLCPI8ml1-41" value="" style="rounded=1;whiteSpace=wrap;html=1;" parent="1" vertex="1">
          <mxGeometry x="200" y="770" width="90" height="40" as="geometry" />
        </mxCell>
        <mxCell id="_8XfiZlyQRfRLCPI8ml1-42" value="Обновлять статус заказа" style="text;html=1;align=center;verticalAlign=middle;whiteSpace=wrap;rounded=0;" parent="1" vertex="1">
          <mxGeometry x="200" y="775" width="90" height="30" as="geometry" />
        </mxCell>
        <mxCell id="_8XfiZlyQRfRLCPI8ml1-43" value="Брать заказы" style="rounded=1;whiteSpace=wrap;html=1;" parent="1" vertex="1">
          <mxGeometry x="112.5" y="840" width="90" height="40" as="geometry" />
        </mxCell>
        <mxCell id="_8XfiZlyQRfRLCPI8ml1-47" value="" style="endArrow=classic;html=1;rounded=0;" parent="1" edge="1">
          <mxGeometry width="50" height="50" relative="1" as="geometry">
            <mxPoint x="80" y="410" as="sourcePoint" />
            <mxPoint x="157" y="548" as="targetPoint" />
          </mxGeometry>
        </mxCell>
        <mxCell id="_8XfiZlyQRfRLCPI8ml1-48" value="" style="endArrow=classic;html=1;rounded=0;entryX=-0.015;entryY=0.594;entryDx=0;entryDy=0;entryPerimeter=0;" parent="1" target="_8XfiZlyQRfRLCPI8ml1-28" edge="1">
          <mxGeometry width="50" height="50" relative="1" as="geometry">
            <mxPoint x="80" y="367" as="sourcePoint" />
            <mxPoint x="157" y="505" as="targetPoint" />
          </mxGeometry>
        </mxCell>
        <mxCell id="_8XfiZlyQRfRLCPI8ml1-49" value="" style="endArrow=classic;html=1;rounded=0;entryX=-0.015;entryY=0.594;entryDx=0;entryDy=0;entryPerimeter=0;" parent="1" source="_8XfiZlyQRfRLCPI8ml1-5" target="_8XfiZlyQRfRLCPI8ml1-30" edge="1">
          <mxGeometry width="50" height="50" relative="1" as="geometry">
            <mxPoint x="90" y="377" as="sourcePoint" />
            <mxPoint x="144" y="354" as="targetPoint" />
          </mxGeometry>
        </mxCell>
        <mxCell id="_8XfiZlyQRfRLCPI8ml1-50" value="" style="endArrow=classic;html=1;rounded=0;entryX=0;entryY=0.25;entryDx=0;entryDy=0;" parent="1" source="_8XfiZlyQRfRLCPI8ml1-5" target="_8XfiZlyQRfRLCPI8ml1-32" edge="1">
          <mxGeometry width="50" height="50" relative="1" as="geometry">
            <mxPoint x="100" y="387" as="sourcePoint" />
            <mxPoint x="154" y="364" as="targetPoint" />
          </mxGeometry>
        </mxCell>
        <mxCell id="_8XfiZlyQRfRLCPI8ml1-51" value="" style="endArrow=classic;html=1;rounded=0;entryX=0;entryY=0.25;entryDx=0;entryDy=0;" parent="1" source="_8XfiZlyQRfRLCPI8ml1-5" target="_8XfiZlyQRfRLCPI8ml1-34" edge="1">
          <mxGeometry width="50" height="50" relative="1" as="geometry">
            <mxPoint x="110" y="397" as="sourcePoint" />
            <mxPoint x="164" y="374" as="targetPoint" />
          </mxGeometry>
        </mxCell>
        <mxCell id="_8XfiZlyQRfRLCPI8ml1-52" value="" style="endArrow=classic;html=1;rounded=0;entryX=-0.015;entryY=0.594;entryDx=0;entryDy=0;entryPerimeter=0;" parent="1" edge="1">
          <mxGeometry width="50" height="50" relative="1" as="geometry">
            <mxPoint x="70" y="750" as="sourcePoint" />
            <mxPoint x="112.5" y="727" as="targetPoint" />
          </mxGeometry>
        </mxCell>
        <mxCell id="_8XfiZlyQRfRLCPI8ml1-53" value="" style="endArrow=classic;html=1;rounded=0;entryX=0;entryY=0.25;entryDx=0;entryDy=0;" parent="1" source="_8XfiZlyQRfRLCPI8ml1-4" target="_8XfiZlyQRfRLCPI8ml1-42" edge="1">
          <mxGeometry width="50" height="50" relative="1" as="geometry">
            <mxPoint x="80" y="760" as="sourcePoint" />
            <mxPoint x="122.5" y="737" as="targetPoint" />
          </mxGeometry>
        </mxCell>
        <mxCell id="_8XfiZlyQRfRLCPI8ml1-54" value="" style="endArrow=classic;html=1;rounded=0;entryX=0.133;entryY=0;entryDx=0;entryDy=0;entryPerimeter=0;" parent="1" source="_8XfiZlyQRfRLCPI8ml1-4" target="_8XfiZlyQRfRLCPI8ml1-43" edge="1">
          <mxGeometry width="50" height="50" relative="1" as="geometry">
            <mxPoint x="90" y="770" as="sourcePoint" />
            <mxPoint x="132.5" y="747" as="targetPoint" />
          </mxGeometry>
        </mxCell>
        <mxCell id="_8XfiZlyQRfRLCPI8ml1-55" value="" style="rounded=1;whiteSpace=wrap;html=1;" parent="1" vertex="1">
          <mxGeometry x="540" y="15" width="90" height="40" as="geometry" />
        </mxCell>
        <mxCell id="_8XfiZlyQRfRLCPI8ml1-56" value="Принимать заказы" style="text;html=1;align=center;verticalAlign=middle;whiteSpace=wrap;rounded=0;" parent="1" vertex="1">
          <mxGeometry x="555" y="20" width="60" height="30" as="geometry" />
        </mxCell>
        <mxCell id="_8XfiZlyQRfRLCPI8ml1-59" value="" style="endArrow=classic;html=1;rounded=0;entryX=1;entryY=0;entryDx=0;entryDy=0;" parent="1" source="_8XfiZlyQRfRLCPI8ml1-6" target="_8XfiZlyQRfRLCPI8ml1-34" edge="1">
          <mxGeometry width="50" height="50" relative="1" as="geometry">
            <mxPoint x="500" y="260" as="sourcePoint" />
            <mxPoint x="550" y="210" as="targetPoint" />
          </mxGeometry>
        </mxCell>
        <mxCell id="_8XfiZlyQRfRLCPI8ml1-60" value="" style="rounded=1;whiteSpace=wrap;html=1;" parent="1" vertex="1">
          <mxGeometry x="540" y="80" width="100" height="50" as="geometry" />
        </mxCell>
        <mxCell id="_8XfiZlyQRfRLCPI8ml1-61" value="Просматривать историю клиента" style="text;html=1;align=center;verticalAlign=middle;whiteSpace=wrap;rounded=0;" parent="1" vertex="1">
          <mxGeometry x="560" y="90" width="60" height="30" as="geometry" />
        </mxCell>
        <mxCell id="_8XfiZlyQRfRLCPI8ml1-63" value="" style="endArrow=classic;html=1;rounded=0;entryX=1.022;entryY=0.664;entryDx=0;entryDy=0;entryPerimeter=0;exitX=0;exitY=0.3333333333333333;exitDx=0;exitDy=0;exitPerimeter=0;" parent="1" source="_8XfiZlyQRfRLCPI8ml1-6" target="_8XfiZlyQRfRLCPI8ml1-55" edge="1">
          <mxGeometry width="50" height="50" relative="1" as="geometry">
            <mxPoint x="500" y="210" as="sourcePoint" />
            <mxPoint x="550" y="160" as="targetPoint" />
          </mxGeometry>
        </mxCell>
        <mxCell id="_8XfiZlyQRfRLCPI8ml1-64" value="" style="endArrow=classic;html=1;rounded=0;entryX=0.987;entryY=0.62;entryDx=0;entryDy=0;entryPerimeter=0;exitX=0;exitY=0.3333333333333333;exitDx=0;exitDy=0;exitPerimeter=0;" parent="1" target="_8XfiZlyQRfRLCPI8ml1-60" edge="1">
          <mxGeometry width="50" height="50" relative="1" as="geometry">
            <mxPoint x="740" y="90" as="sourcePoint" />
            <mxPoint x="642" y="52" as="targetPoint" />
          </mxGeometry>
        </mxCell>
        <mxCell id="_8XfiZlyQRfRLCPI8ml1-65" value="Контролировать цены товаров" style="rounded=1;whiteSpace=wrap;html=1;" parent="1" vertex="1">
          <mxGeometry x="570" y="305" width="100" height="50" as="geometry" />
        </mxCell>
        <mxCell id="_8XfiZlyQRfRLCPI8ml1-67" value="" style="rounded=1;whiteSpace=wrap;html=1;" parent="1" vertex="1">
          <mxGeometry x="570" y="380" width="100" height="50" as="geometry" />
        </mxCell>
        <mxCell id="_8XfiZlyQRfRLCPI8ml1-68" value="Выбирать поставщика" style="text;html=1;align=center;verticalAlign=middle;whiteSpace=wrap;rounded=0;" parent="1" vertex="1">
          <mxGeometry x="590" y="390" width="60" height="30" as="geometry" />
        </mxCell>
        <mxCell id="_8XfiZlyQRfRLCPI8ml1-70" value="" style="rounded=1;whiteSpace=wrap;html=1;" parent="1" vertex="1">
          <mxGeometry x="570" y="450" width="100" height="50" as="geometry" />
        </mxCell>
        <mxCell id="_8XfiZlyQRfRLCPI8ml1-71" value="Вносить данные о поставках" style="text;html=1;align=center;verticalAlign=middle;whiteSpace=wrap;rounded=0;" parent="1" vertex="1">
          <mxGeometry x="590" y="460" width="60" height="30" as="geometry" />
        </mxCell>
        <mxCell id="_8XfiZlyQRfRLCPI8ml1-72" value="" style="rounded=1;whiteSpace=wrap;html=1;" parent="1" vertex="1">
          <mxGeometry x="695" y="495" width="100" height="50" as="geometry" />
        </mxCell>
        <mxCell id="_8XfiZlyQRfRLCPI8ml1-73" value="Вести отчетность о поставках" style="text;html=1;align=center;verticalAlign=middle;whiteSpace=wrap;rounded=0;" parent="1" vertex="1">
          <mxGeometry x="707.5" y="505" width="75" height="30" as="geometry" />
        </mxCell>
        <mxCell id="_8XfiZlyQRfRLCPI8ml1-74" value="" style="rounded=1;whiteSpace=wrap;html=1;" parent="1" vertex="1">
          <mxGeometry x="545" y="570" width="105" height="70" as="geometry" />
        </mxCell>
        <mxCell id="_8XfiZlyQRfRLCPI8ml1-75" value="Размещение акций и скидок на товары" style="text;html=1;align=center;verticalAlign=middle;whiteSpace=wrap;rounded=0;" parent="1" vertex="1">
          <mxGeometry x="567.5" y="590" width="60" height="25" as="geometry" />
        </mxCell>
        <mxCell id="_8XfiZlyQRfRLCPI8ml1-79" value="" style="rounded=1;whiteSpace=wrap;html=1;" parent="1" vertex="1">
          <mxGeometry x="422.5" y="792.5" width="110" height="70" as="geometry" />
        </mxCell>
        <mxCell id="_8XfiZlyQRfRLCPI8ml1-80" value="Вести учет доходов и расходов" style="text;html=1;align=center;verticalAlign=middle;whiteSpace=wrap;rounded=0;" parent="1" vertex="1">
          <mxGeometry x="437.5" y="812.5" width="80" height="30" as="geometry" />
        </mxCell>
        <mxCell id="_8XfiZlyQRfRLCPI8ml1-82" value="" style="rounded=1;whiteSpace=wrap;html=1;" parent="1" vertex="1">
          <mxGeometry x="542.5" y="877.5" width="100" height="50" as="geometry" />
        </mxCell>
        <mxCell id="_8XfiZlyQRfRLCPI8ml1-83" value="Формировать финансовые отчеты" style="text;html=1;align=center;verticalAlign=middle;whiteSpace=wrap;rounded=0;" parent="1" vertex="1">
          <mxGeometry x="562.5" y="887.5" width="60" height="30" as="geometry" />
        </mxCell>
        <mxCell id="_8XfiZlyQRfRLCPI8ml1-84" value="" style="endArrow=classic;html=1;rounded=0;entryX=1;entryY=0.5;entryDx=0;entryDy=0;" parent="1" source="_8XfiZlyQRfRLCPI8ml1-7" target="_8XfiZlyQRfRLCPI8ml1-65" edge="1">
          <mxGeometry width="50" height="50" relative="1" as="geometry">
            <mxPoint x="430" y="380" as="sourcePoint" />
            <mxPoint x="480" y="330" as="targetPoint" />
          </mxGeometry>
        </mxCell>
        <mxCell id="_8XfiZlyQRfRLCPI8ml1-85" value="" style="endArrow=classic;html=1;rounded=0;entryX=1;entryY=0.5;entryDx=0;entryDy=0;" parent="1" target="_8XfiZlyQRfRLCPI8ml1-67" edge="1">
          <mxGeometry width="50" height="50" relative="1" as="geometry">
            <mxPoint x="740" y="364" as="sourcePoint" />
            <mxPoint x="680" y="340" as="targetPoint" />
          </mxGeometry>
        </mxCell>
        <mxCell id="_8XfiZlyQRfRLCPI8ml1-86" value="" style="endArrow=classic;html=1;rounded=0;entryX=1;entryY=0.25;entryDx=0;entryDy=0;" parent="1" source="_8XfiZlyQRfRLCPI8ml1-7" target="_8XfiZlyQRfRLCPI8ml1-70" edge="1">
          <mxGeometry width="50" height="50" relative="1" as="geometry">
            <mxPoint x="750" y="374" as="sourcePoint" />
            <mxPoint x="690" y="350" as="targetPoint" />
          </mxGeometry>
        </mxCell>
        <mxCell id="_8XfiZlyQRfRLCPI8ml1-87" value="" style="endArrow=classic;html=1;rounded=0;entryX=0.371;entryY=0.017;entryDx=0;entryDy=0;entryPerimeter=0;" parent="1" source="_8XfiZlyQRfRLCPI8ml1-7" target="_8XfiZlyQRfRLCPI8ml1-72" edge="1">
          <mxGeometry width="50" height="50" relative="1" as="geometry">
            <mxPoint x="760" y="384" as="sourcePoint" />
            <mxPoint x="700" y="360" as="targetPoint" />
          </mxGeometry>
        </mxCell>
        <mxCell id="_8XfiZlyQRfRLCPI8ml1-88" value="" style="endArrow=classic;html=1;rounded=0;entryX=0.993;entryY=0.414;entryDx=0;entryDy=0;entryPerimeter=0;" parent="1" target="_8XfiZlyQRfRLCPI8ml1-74" edge="1">
          <mxGeometry width="50" height="50" relative="1" as="geometry">
            <mxPoint x="755" y="664" as="sourcePoint" />
            <mxPoint x="695" y="640" as="targetPoint" />
          </mxGeometry>
        </mxCell>
        <mxCell id="_8XfiZlyQRfRLCPI8ml1-91" value="" style="endArrow=classic;html=1;rounded=0;entryX=1;entryY=0.5;entryDx=0;entryDy=0;" parent="1" source="_8XfiZlyQRfRLCPI8ml1-9" target="_8XfiZlyQRfRLCPI8ml1-79" edge="1">
          <mxGeometry width="50" height="50" relative="1" as="geometry">
            <mxPoint x="737.5" y="817.5" as="sourcePoint" />
            <mxPoint x="672.5" y="776.5" as="targetPoint" />
          </mxGeometry>
        </mxCell>
        <mxCell id="_8XfiZlyQRfRLCPI8ml1-92" value="" style="endArrow=classic;html=1;rounded=0;entryX=1;entryY=0;entryDx=0;entryDy=0;" parent="1" source="_8XfiZlyQRfRLCPI8ml1-9" target="_8XfiZlyQRfRLCPI8ml1-82" edge="1">
          <mxGeometry width="50" height="50" relative="1" as="geometry">
            <mxPoint x="747.5" y="827.5" as="sourcePoint" />
            <mxPoint x="682.5" y="786.5" as="targetPoint" />
          </mxGeometry>
        </mxCell>
        <mxCell id="_8XfiZlyQRfRLCPI8ml1-93" value="" style="rounded=1;whiteSpace=wrap;html=1;" parent="1" vertex="1">
          <mxGeometry x="540" y="650" width="105" height="70" as="geometry" />
        </mxCell>
        <mxCell id="_8XfiZlyQRfRLCPI8ml1-94" value="Удаление акций и скидок на товары" style="text;html=1;align=center;verticalAlign=middle;whiteSpace=wrap;rounded=0;" parent="1" vertex="1">
          <mxGeometry x="562.5" y="670" width="60" height="25" as="geometry" />
        </mxCell>
        <mxCell id="_8XfiZlyQRfRLCPI8ml1-95" value="" style="endArrow=classic;html=1;rounded=0;" parent="1" target="_8XfiZlyQRfRLCPI8ml1-93" edge="1">
          <mxGeometry width="50" height="50" relative="1" as="geometry">
            <mxPoint x="750" y="660" as="sourcePoint" />
            <mxPoint x="659" y="609" as="targetPoint" />
          </mxGeometry>
        </mxCell>
        <mxCell id="_8XfiZlyQRfRLCPI8ml1-96" value="" style="curved=1;endArrow=classic;html=1;rounded=0;exitX=0.25;exitY=0.1;exitDx=0;exitDy=0;exitPerimeter=0;entryX=1;entryY=1;entryDx=0;entryDy=0;" parent="1" source="_8XfiZlyQRfRLCPI8ml1-8" target="_8XfiZlyQRfRLCPI8ml1-12" edge="1">
          <mxGeometry width="50" height="50" relative="1" as="geometry">
            <mxPoint x="360" y="340" as="sourcePoint" />
            <mxPoint x="410" y="290" as="targetPoint" />
            <Array as="points">
              <mxPoint x="650" y="550" />
              <mxPoint x="530" y="520" />
              <mxPoint x="480" y="340" />
              <mxPoint x="550" y="160" />
            </Array>
          </mxGeometry>
        </mxCell>
        <mxCell id="_8XfiZlyQRfRLCPI8ml1-97" value="" style="curved=1;endArrow=classic;html=1;rounded=0;exitX=0.25;exitY=0.1;exitDx=0;exitDy=0;exitPerimeter=0;entryX=1;entryY=0.25;entryDx=0;entryDy=0;" parent="1" source="_8XfiZlyQRfRLCPI8ml1-7" target="_8XfiZlyQRfRLCPI8ml1-12" edge="1">
          <mxGeometry width="50" height="50" relative="1" as="geometry">
            <mxPoint x="360" y="340" as="sourcePoint" />
            <mxPoint x="410" y="290" as="targetPoint" />
            <Array as="points">
              <mxPoint x="650" y="240" />
              <mxPoint x="600" y="200" />
            </Array>
          </mxGeometry>
        </mxCell>
        <mxCell id="_8XfiZlyQRfRLCPI8ml1-98" value="" style="curved=1;endArrow=classic;html=1;rounded=0;exitX=0.5;exitY=0;exitDx=0;exitDy=0;exitPerimeter=0;entryX=0;entryY=0.75;entryDx=0;entryDy=0;" parent="1" source="_8XfiZlyQRfRLCPI8ml1-5" target="_8XfiZlyQRfRLCPI8ml1-12" edge="1">
          <mxGeometry width="50" height="50" relative="1" as="geometry">
            <mxPoint x="50" y="340" as="sourcePoint" />
            <mxPoint x="100" y="290" as="targetPoint" />
            <Array as="points">
              <mxPoint x="60" y="320" />
              <mxPoint x="70" y="190" />
            </Array>
          </mxGeometry>
        </mxCell>
        <mxCell id="V76-Cfyr1M5vn4Hm2suG-1" value="" style="curved=1;endArrow=classic;html=1;rounded=0;entryX=0;entryY=0.5;entryDx=0;entryDy=0;" parent="1" source="_8XfiZlyQRfRLCPI8ml1-5" target="_8XfiZlyQRfRLCPI8ml1-93" edge="1">
          <mxGeometry width="50" height="50" relative="1" as="geometry">
            <mxPoint x="390" y="520" as="sourcePoint" />
            <mxPoint x="440" y="470" as="targetPoint" />
            <Array as="points">
              <mxPoint x="240" y="610" />
              <mxPoint x="370" y="650" />
            </Array>
          </mxGeometry>
        </mxCell>
        <mxCell id="V76-Cfyr1M5vn4Hm2suG-2" value="" style="endArrow=classic;html=1;rounded=0;entryX=0;entryY=0.5;entryDx=0;entryDy=0;" parent="1" target="_8XfiZlyQRfRLCPI8ml1-74" edge="1">
          <mxGeometry width="50" height="50" relative="1" as="geometry">
            <mxPoint x="260" y="605" as="sourcePoint" />
            <mxPoint x="440" y="470" as="targetPoint" />
          </mxGeometry>
        </mxCell>
      </root>
    </mxGraphModel>
  </diagram>
</mxfile>
